<?xml version="1.0" encoding="UTF-8"?>
<svg id="Layer_2" data-name="Layer 2" xmlns="http://www.w3.org/2000/svg" viewBox="0 0 835.65 741.33">
  <defs>
    <style>
      .cls-1 {
        stroke-width: 0px;
      }

      .cls-1, .cls-2, .cls-3, .cls-4, .cls-5 {
        fill: #f46315;
      }

      .cls-2 {
        font-size: 105px;
        letter-spacing: .27em;
      }

      .cls-2, .cls-3 {
        font-family: Comfortaa-Bold, Comfortaa;
        font-variation-settings: 'wght' 700;
        font-weight: 700;
        stroke-width: 3px;
      }

      .cls-2, .cls-3, .cls-4, .cls-6, .cls-5, .cls-7 {
        stroke: #f46315;
        stroke-miterlimit: 10;
      }

      .cls-2, .cls-3, .cls-6, .cls-5 {
        stroke-linecap: round;
      }

      .cls-3 {
        font-size: 60px;
        letter-spacing: .33em;
      }

      .cls-6, .cls-5, .cls-7 {
        stroke-width: 6px;
      }

      .cls-6, .cls-7 {
        fill: none;
      }
    </style>
  </defs>
  <g>
    <text class="cls-2" transform="translate(140.35 567.67)"><tspan x="0" y="0">NOMAD</tspan></text>
    <text class="cls-3" transform="translate(299.31 647.87)"><tspan x="0" y="0">CREW</tspan></text>
  </g>
  <g>
    <g>
      <path class="cls-4" d="M727.59,452.15c-6.93.06-13.87.02-20.82.02,15.28-91.06-4.23-173.04-63.27-243.54-58.98-70.43-135.61-106.97-227.78-106.64-84.69.3-156.16,33.82-213.44,95.48-66.76,71.86-88.87,157.84-74.69,254.96-7.23,0-14.19.04-21.15-.02-2.71-.02-4.99.08-4.96,3.78.03,3.57,1.15,5.81,5.12,5.73,2.33-.05,4.66,0,6.99,0,148.15-.09,296.3-.18,444.45-.26,56.43-.03,112.86-.04,169.29-.07,3.31,0,6.75.64,6.85-4.67.1-5.3-3.15-4.82-6.59-4.79ZM277.28,452.17c-17.62.2-35.24.13-54.86.13,63.49-96.15,126.22-191.14,188.95-286.13.53.2,1.05.39,1.58.59.09,1.59.24,3.19.25,4.78.09,23.3.32,46.61.07,69.91-.04,3.87-1.33,8.26-3.44,11.5-42.7,65.52-85.59,130.91-128.52,196.27-.87,1.33-2.65,2.93-4.03,2.94ZM289.53,452.08c42.96-65.39,85.38-129.95,128.33-195.33,42.56,65.23,84.74,129.85,127.47,195.33h-255.8ZM607.83,452.28c-15.81.03-31.62-.07-47.43.12-3.44.04-5.35-1.17-7.18-3.99-34.7-53.45-69.51-106.83-104.3-160.22-7.54-11.57-15.04-23.16-22.73-34.64-2.5-3.73-3.67-7.5-3.63-12.07.17-22.97.03-45.94,0-68.9,0-1.61,0-3.23,0-4.84.58-.22,1.16-.45,1.74-.67,62.78,94.64,125.57,189.27,188.91,284.74-2.6.24-3.99.47-5.38.47ZM702.31,423.06c-.73,8.77-2.16,17.5-3.59,26.19-.24,1.47-2.07,3.8-3.21,3.82-13.29.27-26.58.17-40.31.17l-10.4.06c-6.14,0-12.35.07-18.64-.17-1.47-.1-3.12-2.15-4.13-3.68-18.42-27.92-36.62-55.99-55.15-83.84-45.63-68.59-91.4-137.09-137.1-205.63-2.4-3.6-4.65-7.3-7.08-10.88-3.21-4.72-5.31-4.69-8.51.06-11.61,17.26-23.32,34.46-34.78,51.82-54.62,82.79-109.19,165.61-163.69,248.48-1.87,2.84-7.24,3.22-7.24,3.22l-26.85.2h-43.93c-.92-5.87-2.13-12.01-2.8-18.21-4.32-39.65-2.09-78.87,9.33-117.19,18.76-62.99,55.45-113.4,108.54-151.95,116.08-84.29,273.1-69.49,372.91,36.24,58.47,61.93,83.71,136.26,76.63,221.3Z"/>
      <g id="Orange_Fire" data-name="Orange Fire">
        <path class="cls-4" d="M387.83,418.06c-6.65-1.63-12.41-3.2-18.25-4.42-4.32-.9-5.69-3.17-5.02-7.47,2.05-13.12,2.72-13.53,15.26-9.93,13.91,4,27.84,7.94,41.86,11.49,3.16.8,7.01.56,10.14-.45,9.97-3.22,19.75-7.01,29.6-10.6,5.6-2.04,6.69-1.63,9.35,3.76.59,1.19,1.1,2.43,1.56,3.67,2,5.36.56,7.66-5,8.73-5.2,1-10.34,2.33-15.56,4.59,6.58,1.76,13.16,3.5,19.73,5.29,5.43,1.48,5.96,2.33,4.09,7.74-5.78,16.74-3.96,13.6-18.34,9.52-13.12-3.73-26.16-7.74-39.29-11.42-1.91-.53-4.3-.35-6.2.29-12.14,4.07-24.23,8.33-36.31,12.6-6.12,2.16-7.09,1.8-9.92-4.26q-5.05-10.81,6.29-13.89c4.82-1.31,9.63-2.63,14.44-3.97.27-.07.47-.38,1.56-1.29Z"/>
        <path class="cls-4" d="M391.92,338.05c-1.4,12.48-3.85,25.08,3.52,36.66.47-.46.86-.68.84-.86-1.19-13.68,2.63-26.06,10.14-37.31,6.65-9.97,8.49-20.34,4.34-31.77-.67-1.83.25-4.24.43-6.39,2.04.83,4.47,1.2,6.06,2.56,16.47,14.13,21.97,35.83,14.55,56.13-1.01,2.77-1.78,5.72-2.03,8.64-.11,1.29,1.07,3.24,2.23,3.9.75.43,3.17-.58,3.73-1.57,3.56-6.3,7.11-12.65,10.05-19.25,1.55-3.49,1.86-7.53,3.01-12.54,1.86,2.09,3.15,3.11,3.88,4.44,7.54,13.62,9.02,27.76,2.57,42.13-1.49,3.32-4.44,6.17-7.25,8.62-1.04.91-3.61.06-5.49.02.14-1.53.02-3.14.47-4.58,1.41-4.5,3.04-8.93,4.59-13.39-.47-.22-.94-.45-1.41-.67-1.58,2.02-3.06,4.13-4.76,6.04-3.55,3.98-7.69,7.4-13.38,5.93-5.67-1.46-7.65-6.75-7.89-11.64-.31-6.37.42-12.92,1.65-19.21,2.18-11.18,2.71-15.26.88-21.64-8.02,9.32-14.1,18.94-15.33,31.26-1.21,12.1,2.31,23.17,7.12,34.15-16.15,1.98-32.6-13.29-35.14-31.63-1.91-13.83,3.5-26.6,12.61-28.01Z"/>
      </g>
    </g>
    <g>
      <line class="cls-7" x1="181.88" y1="438.25" x2="181.88" y2="363.29"/>
      <g>
        <path class="cls-1" d="M151.54,368.12c12.66-7.49,22.61-19.16,30.34-31.57,7.62,12.53,17.93,23.71,30.34,31.57v7.49c-12.03-7.86-22.48-17.31-30.34-28.99-7.98,11.67-18.55,21.5-30.34,29.11v-7.61Z"/>
        <path class="cls-1" d="M151.54,386.17c12.66-7.49,22.61-19.16,30.34-31.56,7.62,12.53,17.93,23.7,30.34,31.56v7.49c-12.03-7.85-22.48-17.31-30.34-28.98-7.98,11.67-18.55,21.49-30.34,29.1v-7.61Z"/>
      </g>
    </g>
    <g>
      <line class="cls-7" x1="181.88" y1="454.39" x2="181.88" y2="399.67"/>
      <g>
        <path class="cls-1" d="M151.54,404.5c12.66-7.49,22.61-19.16,30.34-31.57,7.62,12.53,17.93,23.71,30.34,31.57v7.49c-12.03-7.86-22.48-17.31-30.34-28.99-7.98,11.67-18.55,21.5-30.34,29.11v-7.61Z"/>
        <path class="cls-1" d="M151.54,422.55c12.66-7.49,22.61-19.16,30.34-31.56,7.62,12.53,17.93,23.7,30.34,31.56v7.49c-12.03-7.85-22.48-17.31-30.34-28.98-7.98,11.67-18.55,21.49-30.34,29.1v-7.61Z"/>
      </g>
    </g>
    <g>
      <line class="cls-6" x1="657.16" y1="437.08" x2="657.16" y2="362.12"/>
      <g>
        <path class="cls-1" d="M626.82,366.95c12.66-7.49,22.61-19.16,30.34-31.57,7.62,12.53,17.93,23.71,30.34,31.57v7.49c-12.03-7.86-22.48-17.31-30.34-28.99-7.98,11.67-18.55,21.5-30.34,29.11v-7.61Z"/>
        <path class="cls-1" d="M626.82,385c12.66-7.49,22.61-19.16,30.34-31.56,7.62,12.53,17.93,23.7,30.34,31.56v7.49c-12.03-7.85-22.48-17.31-30.34-28.98-7.98,11.67-18.55,21.49-30.34,29.1v-7.61Z"/>
      </g>
    </g>
    <g>
      <line class="cls-6" x1="657.16" y1="453.22" x2="657.16" y2="398.5"/>
      <g>
        <path class="cls-1" d="M626.82,403.33c12.66-7.49,22.61-19.16,30.34-31.57,7.62,12.53,17.93,23.71,30.34,31.57v7.49c-12.03-7.86-22.48-17.31-30.34-28.99-7.98,11.67-18.55,21.5-30.34,29.11v-7.61Z"/>
        <path class="cls-1" d="M626.82,421.38c12.66-7.49,22.61-19.16,30.34-31.56,7.62,12.53,17.93,23.7,30.34,31.56v7.49c-12.03-7.85-22.48-17.31-30.34-28.98-7.98,11.67-18.55,21.49-30.34,29.1v-7.61Z"/>
      </g>
    </g>
    <line class="cls-5" x1="208.76" y1="257.75" x2="284.15" y2="257.75"/>
    <line class="cls-5" x1="227.88" y1="334.83" x2="254.58" y2="334.83"/>
    <line class="cls-5" x1="278.12" y1="195.59" x2="319.72" y2="195.59"/>
    <line class="cls-5" x1="484.94" y1="175.4" x2="560.34" y2="175.4"/>
    <line class="cls-5" x1="570.68" y1="334.83" x2="601.31" y2="334.83"/>
    <line class="cls-5" x1="570.89" y1="251.97" x2="646.28" y2="251.97"/>
  </g>
</svg>